# xmcd
#
# Track frame offsets: 
#        150
#        21837
#        45996
#        64172
#        86678
#        103422
#        124164
#        136831
#        153998
#        170244
#        190453
#        211340
#        226367
#        230848
#        253356
#        268901
#
# Disc length: 3801 seconds
#
# Revision: 0
# Processed by: cddbd v1.5.2PL0 Copyright (c) Steve Scherf et al.
# Submitted via: ExactAudioCopy v1.3
#
DISCID=f20ed710
DTITLE=Ben Racine Band - Live A Montreal
DYEAR=2019
DGENRE=Blues
TTITLE0=Addiction
TTITLE1=Too Busy Being Pretty
TTITLE2=Contagious
TTITLE3=Modus Operandi
TTITLE4=The Pleasure's All Mine
TTITLE5=Cuttin'In
TTITLE6=One of a Kind
TTITLE7=Southbound Girl
TTITLE8=No Smoke Without Fire
TTITLE9=Grand New Brew
TTITLE10=Bootprint
TTITLE11=Mighty Good Time
TTITLE12=Presentation,Merci
TTITLE13=Snap Jab
TTITLE14=Move on
TTITLE15=Can't Wait to See You Again
EXTD=
EXTT0=
EXTT1=
EXTT2=
EXTT3=
EXTT4=
EXTT5=
EXTT6=
EXTT7=
EXTT8=
EXTT9=
EXTT10=
EXTT11=
EXTT12=
EXTT13=
EXTT14=
EXTT15=
PLAYORDER=
